<?xml version="1.0" encoding="utf-8"?>
<!-- Svg Vector Icons : http://www.onlinewebfonts.com/icon -->
<!DOCTYPE svg PUBLIC "-//W3C//DTD SVG 1.1//EN" "http://www.w3.org/Graphics/SVG/1.1/DTD/svg11.dtd">
<svg version="1.1" xmlns="http://www.w3.org/2000/svg" xmlns:xlink="http://www.w3.org/1999/xlink" x="0px" y="0px" viewBox="0 0 1000 1000" enable-background="new 0 0 1000 1000" xml:space="preserve">
<metadata> Svg Vector Icons : http://www.onlinewebfonts.com/icon </metadata>
<g><path d="M437.7,599.5c-0.4,1.1-2.7,1-6.9-0.3c-4.2-1.3-9.9-3.4-17.2-6.3l-10.9-4.9c-16.1-7.3-31.9-16.2-47.6-26.8c-2.6-1.8-10-7.6-22.4-17.2s-19.3-14.9-20.8-15.6c-24.4,37.6-48.8,70.6-73.3,99C209.1,662,190,682,181.2,687.5c-1.4,0.7-5,1.5-10.6,2.2c-5.6,0.7-9,0.7-10.1,0c2.2-1.4,17.1-18.2,44.9-50.3c7.7-8.7,23.2-29.7,46.8-62.9c23.5-33.2,37.8-54.7,42.9-64.5c6.2-10.9,15.5-28.9,27.9-53.9c12.4-25,18.9-39.1,19.7-42.3c-2.9-0.4-22.9,5.6-60.1,18.1c-2.9,0.7-7.9,2.1-15,4.1c-7.1,2-13.4,3.7-18.9,5.2c-5.5,1.4-8.6,2.4-9.3,2.7c-0.7,0.7-1.1,2.7-1.1,5.7s-0.2,4.8-0.6,5.2c-1.8,3.6-7.5,6.4-16.9,8.2c-8.4,2.6-17,2.6-25.7,0c-6.6-1.4-11.7-5.3-15.3-11.5c-1.4-2.2-2.4-6.4-2.7-12.6c2.2-0.7,6.6-1.7,13.4-2.7c6.7-1.1,12.1-2.2,16.1-3.3c21.1-5.8,40.3-11.7,57.4-17.5c36.4-12.7,55-19.1,55.8-19.1c3.6-0.7,11.5-4.3,23.5-10.6c12-6.3,20.1-10.3,24.1-11.8c3.3-1.1,7.2-2.5,11.8-4.3c4.6-1.8,7.2-2.8,7.9-3c0.7-0.2,1.8-0.1,3.3,0.3c0.7,4.4,0.6,10.4-0.6,18.1c0,0.7-2.3,5.7-6.9,14.8c-4.6,9.1-9.4,18.9-14.5,29.3c-5.1,10.4-8.2,16.5-9.3,18.3c-9.1,18.2-23.1,42.1-42.1,71.6l35,15.3c4.4,2.2,18,8,40.7,17.5c22.8,9.5,35.1,14.6,36.9,15.3c1.4,0.4,3.4,5,5.7,13.9c2.4,8.9,3.2,14.5,2.4,16.7H437.7z M325.6,333.8c1.1,5.5,0.3,10.6-2.2,15.3c-4.4,8.4-13.5,15.3-27.4,20.8c-10.9,4.4-21.9,6.6-32.8,6.6c-9.5-1.1-18.4-5.8-26.8-14.2c-5.1-5.5-8.4-12.9-9.9-22.4l0.6-1.6c1.1,1.1,4.6,2,10.6,2.7c6,0.7,10.8,0.7,14.5,0s14.2-3.7,31.7-8.7c13.1-4.4,23.1-6.9,30.1-7.6c6.2,0,10,3.1,11.5,9.3L325.6,333.8z M707.3,404.3l34.4,124.1l-76-23L707.3,404.3z M101.4,841.8l379.5-126.8V150.7L101.4,278.1V841.8L101.4,841.8z M780,668.4l55.8,16.9l-99-359.3l-54.7-16.9L564,602.3l55.8,16.9l24.6-60.1l115.3,35.6L780,668.4z M504.9,142.4l313.3,100.6V35.3L504.9,142.4z M675,865.8l86.4,7.1l-29.5,87.5L710,924.4c-47.4,30.2-97.7,49.9-150.9,59.1c-21.1,4.4-37.7,6.6-49.8,6.6h-45.9c-28.8,0-65.2-7.1-109.1-21.3c-44-14.2-77.4-29.7-100.4-46.5c-2.9-2.6-4.3-5.5-4.3-8.7c0-2.9,0.9-5.3,2.7-7.3c1.8-2,4.2-3,7.1-3c1.4,0,4.7,1.4,9.9,4.1c5.1,2.8,10.7,5.8,16.7,9c6,3.3,9.7,5.3,11.2,6c26.6,13.5,55.7,24.7,87.2,33.6c31.5,8.9,60.2,13.4,86.1,13.4c34.6,0,65.1-2.6,91.3-7.9c26.3-5.3,54.9-14.5,85.9-27.6c5.5-2.6,11-5.4,16.7-8.5c5.6-3.1,11.9-6.5,18.6-10.4c6.8-3.8,12-6.8,15.6-9L675,865.8z M920,275.8v590L496.7,731.3c-5.1,2.2-73.4,25.4-205.1,69.7C160,845.3,93,867.4,90.5,867.4c-4.8,0-8-2.4-9.9-7.1c0-0.4-0.2-0.9-0.6-1.6V269.2c1.1-3.3,1.8-5.1,2.2-5.5c1.8-2.2,5.5-4.2,10.9-6c38.6-12.7,65.8-21.9,81.5-27.4v-210l305.1,108.3c0.7,0,30-10,87.8-30.1c57.8-20.1,115.4-39.8,172.8-59.4C797.7,19.8,827.1,10,828.6,10c7.3,0,10.9,3.8,10.9,11.5v228.6L920,275.8z"/></g>
</svg>