<?xml version="1.0" standalone="no"?>
<!DOCTYPE svg PUBLIC "-//W3C//DTD SVG 20010904//EN"
 "http://www.w3.org/TR/2001/REC-SVG-20010904/DTD/svg10.dtd">
<svg version="1.0" xmlns="http://www.w3.org/2000/svg"
 width="260.000000pt" height="260.000000pt" viewBox="0 0 260.000000 260.000000"
 preserveAspectRatio="xMidYMid meet">
<metadata>
Created by potrace 1.11, written by Peter Selinger 2001-2013
</metadata>
<g transform="translate(0.000000,260.000000) scale(0.100000,-0.100000)"
fill="#000000" stroke="none">
<path d="M1200 2493 c-52 -30 -149 -84 -215 -120 -66 -36 -134 -76 -152 -89
-35 -27 -434 -258 -550 -318 l-73 -38 0 -627 0 -627 72 -38 c128 -69 450 -256
533 -311 44 -29 118 -73 165 -98 47 -24 136 -75 199 -111 l113 -67 123 70 c68
39 163 91 212 117 48 25 106 59 128 74 37 27 459 270 574 332 l51 28 0 628 0
628 -82 44 c-129 68 -511 290 -533 310 -11 10 -69 45 -130 78 -60 32 -161 89
-224 126 -62 36 -114 66 -115 66 0 -1 -44 -26 -96 -57z m245 -668 c76 -82 162
-175 190 -205 29 -30 110 -118 180 -195 71 -77 142 -155 159 -173 29 -31 29
-33 13 -50 -17 -16 -20 -14 -70 38 -267 284 -390 416 -492 528 -65 73 -122
132 -126 132 -3 0 -63 -62 -133 -137 -70 -76 -196 -210 -280 -298 -84 -88
-179 -188 -212 -222 -54 -58 -61 -61 -78 -48 -23 17 -40 -3 278 334 122 129
266 283 321 343 54 59 102 107 105 106 3 -2 68 -70 145 -153z m-385 -8 c0 -44
-18 -67 -107 -141 l-23 -19 0 101 0 102 65 0 65 0 0 -43z m294 -95 c30 -32 68
-76 84 -98 16 -21 89 -102 164 -179 74 -77 183 -192 241 -255 l105 -115 -64
-3 -64 -3 0 -134 0 -135 -219 0 -220 0 -3 -27 -3 -28 -85 0 -85 0 -3 27 -3 28
-202 2 -202 3 4 133 4 132 -88 0 -87 0 143 152 c79 83 187 195 239 247 53 53
138 144 190 204 51 59 95 107 96 107 1 0 28 -26 58 -58z"/>
<path d="M1184 1401 c-2 -2 -4 -26 -4 -53 l0 -48 51 0 50 0 -3 51 -3 52 -43 1
c-24 1 -46 -1 -48 -3z"/>
<path d="M1300 1350 l0 -50 48 0 c27 0 51 2 53 4 2 3 3 25 1 50 l-4 46 -49 0
-49 0 0 -50z"/>
<path d="M1180 1230 l0 -50 50 0 50 0 0 50 0 50 -50 0 -50 0 0 -50z"/>
<path d="M1300 1230 l0 -51 52 3 51 3 0 45 0 45 -51 3 -52 3 0 -51z"/>
<path d="M1210 905 l0 -105 85 0 85 0 0 105 0 105 -85 0 -85 0 0 -105z"/>
</g>
</svg>
